<svg xmlns="http://www.w3.org/2000/svg" width="1200" height="720" viewBox="0 0 1200 720" role="img" aria-labelledby="title desc">
  <title id="title">Capitol Trades top 5 activity leaderboard</title>
  <desc id="desc">Bar chart of reported trade counts for five congressional traders as checked at 5:00am CT on 2026-04-26.</desc>
  <defs>
    <linearGradient id="bg" x1="0" x2="1" y1="0" y2="1">
      <stop offset="0%" stop-color="#071427"/>
      <stop offset="100%" stop-color="#0f2746"/>
    </linearGradient>
    <linearGradient id="bar" x1="0" x2="1">
      <stop offset="0%" stop-color="#3b82f6"/>
      <stop offset="100%" stop-color="#22d3ee"/>
    </linearGradient>
  </defs>
  <rect width="1200" height="720" rx="32" fill="url(#bg)"/>
  <text x="70" y="90" fill="#edf4ff" font-size="34" font-family="Inter,Arial,sans-serif" font-weight="800">Activity leaderboard</text>
  <text x="70" y="126" fill="#9bb0cd" font-size="20" font-family="Inter,Arial,sans-serif">Reported trade counts from Capitol Trades public politician pages, checked 2026-04-26 5:00am CT</text>
  <g font-family="Inter,Arial,sans-serif" font-size="22" fill="#dbe8ff">
    <text x="70" y="210">Ro Khanna</text>
    <rect x="260" y="182" width="760" height="46" rx="16" fill="rgba(255,255,255,0.08)"/>
    <rect x="260" y="182" width="760" height="46" rx="16" fill="url(#bar)"/>
    <text x="1040" y="213" text-anchor="end" fill="#ffffff" font-weight="700">12,123</text>

    <text x="70" y="300">Michael McCaul</text>
    <rect x="260" y="272" width="291" height="46" rx="16" fill="rgba(255,255,255,0.08)"/>
    <rect x="260" y="272" width="291" height="46" rx="16" fill="url(#bar)"/>
    <text x="571" y="303" text-anchor="end" fill="#ffffff" font-weight="700">4,645</text>

    <text x="70" y="390">Josh Gottheimer</text>
    <rect x="260" y="362" width="88" height="46" rx="16" fill="rgba(255,255,255,0.08)"/>
    <rect x="260" y="362" width="88" height="46" rx="16" fill="url(#bar)"/>
    <text x="368" y="393" text-anchor="end" fill="#ffffff" font-weight="700">1,405</text>

    <text x="70" y="480">Suzan DelBene</text>
    <rect x="260" y="452" width="11" height="46" rx="16" fill="rgba(255,255,255,0.08)"/>
    <rect x="260" y="452" width="11" height="46" rx="16" fill="url(#bar)"/>
    <text x="291" y="483" text-anchor="end" fill="#ffffff" font-weight="700">174</text>

    <text x="70" y="570">Mark Green</text>
    <rect x="260" y="542" width="4" height="46" rx="16" fill="rgba(255,255,255,0.08)"/>
    <rect x="260" y="542" width="4" height="46" rx="16" fill="url(#bar)"/>
    <text x="284" y="573" text-anchor="end" fill="#ffffff" font-weight="700">52</text>
  </g>
  <text x="70" y="660" fill="#9bb0cd" font-size="18" font-family="Inter,Arial,sans-serif">Source pages: K000389, M001157, G000583, D000617, G000590 on capitoltrades.com</text>
</svg>