<svg xmlns="http://www.w3.org/2000/svg" width="1100" height="650" viewBox="0 0 1100 650"><rect width="100%" height="100%" fill="#ffffff"/><text x="550.0" y="40" text-anchor="middle" font-family="Arial" font-size="28" font-weight="bold">Capitol Trades: active traders by disclosed trade count</text><text x="25" y="290.0" transform="rotate(-90 25 290.0)" text-anchor="middle" font-family="Arial" font-size="18">Approx. trade count</text><line x1="110" y1="500" x2="1060" y2="500" stroke="#333" stroke-width="2"/><line x1="110" y1="80" x2="110" y2="500" stroke="#333" stroke-width="2"/><line x1="110" y1="500.0" x2="1060" y2="500.0" stroke="#ddd" stroke-width="1"/><text x="100" y="505.0" text-anchor="end" font-family="Arial" font-size="14" fill="#555">0</text><line x1="110" y1="416.0" x2="1060" y2="416.0" stroke="#ddd" stroke-width="1"/><text x="100" y="421.0" text-anchor="end" font-family="Arial" font-size="14" fill="#555">2,600</text><line x1="110" y1="332.0" x2="1060" y2="332.0" stroke="#ddd" stroke-width="1"/><text x="100" y="337.0" text-anchor="end" font-family="Arial" font-size="14" fill="#555">5,200</text><line x1="110" y1="248.0" x2="1060" y2="248.0" stroke="#ddd" stroke-width="1"/><text x="100" y="253.0" text-anchor="end" font-family="Arial" font-size="14" fill="#555">7,800</text><line x1="110" y1="164.0" x2="1060" y2="164.0" stroke="#ddd" stroke-width="1"/><text x="100" y="169.0" text-anchor="end" font-family="Arial" font-size="14" fill="#555">10,400</text><line x1="110" y1="80.0" x2="1060" y2="80.0" stroke="#ddd" stroke-width="1"/><text x="100" y="85.0" text-anchor="end" font-family="Arial" font-size="14" fill="#555">13,000</text><rect x="164.28571428571428" y="285.73538461538465" width="135.71428571428572" height="214.26461538461538" fill="#4F81BD" rx="4"/><text x="232.14285714285714" y="275.73538461538465" text-anchor="middle" font-family="Arial" font-size="14" fill="#222">6,632</text><text x="232.14285714285714" y="525" text-anchor="end" transform="rotate(-35 232.14285714285714 525)" font-family="Arial" font-size="14" fill="#222">Michael McCaul</text><rect x="354.2857142857143" y="80.0" width="135.71428571428572" height="420.0" fill="#4F81BD" rx="4"/><text x="422.1428571428571" y="70.0" text-anchor="middle" font-family="Arial" font-size="14" fill="#222">13,000</text><text x="422.1428571428571" y="525" text-anchor="end" transform="rotate(-35 422.1428571428571 525)" font-family="Arial" font-size="14" fill="#222">Ro Khanna</text><rect x="544.2857142857142" y="493.95846153846156" width="135.71428571428572" height="6.041538461538462" fill="#4F81BD" rx="4"/><text x="612.1428571428571" y="483.95846153846156" text-anchor="middle" font-family="Arial" font-size="14" fill="#222">187</text><text x="612.1428571428571" y="525" text-anchor="end" transform="rotate(-35 612.1428571428571 525)" font-family="Arial" font-size="14" fill="#222">Suzan DelBene</text><rect x="734.2857142857142" y="459.2923076923077" width="135.71428571428572" height="40.707692307692305" fill="#4F81BD" rx="4"/><text x="802.1428571428571" y="449.2923076923077" text-anchor="middle" font-family="Arial" font-size="14" fill="#222">1,260</text><text x="802.1428571428571" y="525" text-anchor="end" transform="rotate(-35 802.1428571428571 525)" font-family="Arial" font-size="14" fill="#222">Josh Gottheimer</text><rect x="924.2857142857142" y="480.61538461538464" width="135.71428571428572" height="19.384615384615383" fill="#4F81BD" rx="4"/><text x="992.1428571428571" y="470.61538461538464" text-anchor="middle" font-family="Arial" font-size="14" fill="#222">600</text><text x="992.1428571428571" y="525" text-anchor="end" transform="rotate(-35 992.1428571428571 525)" font-family="Arial" font-size="14" fill="#222">Mark Green</text></svg>