<svg xmlns="http://www.w3.org/2000/svg" width="1100" height="650" viewBox="0 0 1100 650"><rect width="100%" height="100%" fill="#ffffff"/><text x="550.0" y="40" text-anchor="middle" font-family="Arial" font-size="28" font-weight="bold">Capitol Trades: inferred high-volume trader ranking</text><text x="25" y="290.0" transform="rotate(-90 25 290.0)" text-anchor="middle" font-family="Arial" font-size="18">Relative volume score</text><line x1="110" y1="500" x2="1060" y2="500" stroke="#333" stroke-width="2"/><line x1="110" y1="80" x2="110" y2="500" stroke="#333" stroke-width="2"/><line x1="110" y1="500.0" x2="1060" y2="500.0" stroke="#ddd" stroke-width="1"/><text x="100" y="505.0" text-anchor="end" font-family="Arial" font-size="14" fill="#555">0</text><line x1="110" y1="416.0" x2="1060" y2="416.0" stroke="#ddd" stroke-width="1"/><text x="100" y="421.0" text-anchor="end" font-family="Arial" font-size="14" fill="#555">20</text><line x1="110" y1="332.0" x2="1060" y2="332.0" stroke="#ddd" stroke-width="1"/><text x="100" y="337.0" text-anchor="end" font-family="Arial" font-size="14" fill="#555">40</text><line x1="110" y1="248.0" x2="1060" y2="248.0" stroke="#ddd" stroke-width="1"/><text x="100" y="253.0" text-anchor="end" font-family="Arial" font-size="14" fill="#555">60</text><line x1="110" y1="164.0" x2="1060" y2="164.0" stroke="#ddd" stroke-width="1"/><text x="100" y="169.0" text-anchor="end" font-family="Arial" font-size="14" fill="#555">80</text><line x1="110" y1="80.0" x2="1060" y2="80.0" stroke="#ddd" stroke-width="1"/><text x="100" y="85.0" text-anchor="end" font-family="Arial" font-size="14" fill="#555">100</text><rect x="164.28571428571428" y="80.0" width="135.71428571428572" height="420.0" fill="#C0504D" rx="4"/><text x="232.14285714285714" y="70.0" text-anchor="middle" font-family="Arial" font-size="14" fill="#222">100</text><text x="232.14285714285714" y="525" text-anchor="end" transform="rotate(-35 232.14285714285714 525)" font-family="Arial" font-size="14" fill="#222">Michael McCaul</text><rect x="354.2857142857143" y="353.0" width="135.71428571428572" height="147.0" fill="#C0504D" rx="4"/><text x="422.1428571428571" y="343.0" text-anchor="middle" font-family="Arial" font-size="14" fill="#222">35</text><text x="422.1428571428571" y="525" text-anchor="end" transform="rotate(-35 422.1428571428571 525)" font-family="Arial" font-size="14" fill="#222">Ro Khanna</text><rect x="544.2857142857142" y="164.0" width="135.71428571428572" height="336.0" fill="#C0504D" rx="4"/><text x="612.1428571428571" y="154.0" text-anchor="middle" font-family="Arial" font-size="14" fill="#222">80</text><text x="612.1428571428571" y="525" text-anchor="end" transform="rotate(-35 612.1428571428571 525)" font-family="Arial" font-size="14" fill="#222">Suzan DelBene</text><rect x="734.2857142857142" y="206.0" width="135.71428571428572" height="294.0" fill="#C0504D" rx="4"/><text x="802.1428571428571" y="196.0" text-anchor="middle" font-family="Arial" font-size="14" fill="#222">70</text><text x="802.1428571428571" y="525" text-anchor="end" transform="rotate(-35 802.1428571428571 525)" font-family="Arial" font-size="14" fill="#222">Josh Gottheimer</text><rect x="924.2857142857142" y="395.0" width="135.71428571428572" height="105.0" fill="#C0504D" rx="4"/><text x="992.1428571428571" y="385.0" text-anchor="middle" font-family="Arial" font-size="14" fill="#222">25</text><text x="992.1428571428571" y="525" text-anchor="end" transform="rotate(-35 992.1428571428571 525)" font-family="Arial" font-size="14" fill="#222">Mark Green</text></svg>